<svg width="22" height="22" viewBox="0 0 22 22" fill="none" xmlns="http://www.w3.org/2000/svg">
<path d="M4 1.5H18V0.5H4V1.5ZM20.5 4V18H21.5V4H20.5ZM18 20.5H4V21.5H18V20.5ZM1.5 18V4H0.5V18H1.5ZM4 20.5C2.61929 20.5 1.5 19.3807 1.5 18H0.5C0.5 19.933 2.067 21.5 4 21.5V20.5ZM20.5 18C20.5 19.3807 19.3807 20.5 18 20.5V21.5C19.933 21.5 21.5 19.933 21.5 18H20.5ZM18 1.5C19.3807 1.5 20.5 2.61929 20.5 4H21.5C21.5 2.067 19.933 0.5 18 0.5V1.5ZM4 0.5C2.067 0.5 0.5 2.067 0.5 4H1.5C1.5 2.61929 2.61929 1.5 4 1.5V0.5Z" fill="#D5D6D7"/>
</svg>
