<svg width="26" height="22" viewBox="0 0 26 22" fill="none" xmlns="http://www.w3.org/2000/svg">
<path d="M16.6543 16.1442C17.0412 16.5383 17.6743 16.5442 18.0684 16.1573C18.4626 15.7705 18.4684 15.1373 18.0816 14.7432L16.6543 16.1442ZM13.0047 10.9986L13.7183 10.2981C13.5303 10.1066 13.2731 9.99864 13.0047 9.99864C12.7362 9.99864 12.4791 10.1066 12.291 10.2981L13.0047 10.9986ZM7.92781 14.7432C7.54093 15.1373 7.54681 15.7705 7.94094 16.1573C8.33508 16.5442 8.96821 16.5383 9.35509 16.1442L7.92781 14.7432ZM12.0047 21C12.0047 21.5523 12.4524 22 13.0047 22C13.557 22 14.0047 21.5523 14.0047 21H12.0047ZM21.6711 17.2254C21.1882 17.4935 21.0142 18.1023 21.2824 18.5851C21.5505 19.0679 22.1593 19.242 22.6421 18.9738L21.6711 17.2254ZM19.5496 7.66484L19.5502 6.66484H19.5496V7.66484ZM18.1751 7.66484L17.2059 7.91082C17.3184 8.35431 17.7176 8.66484 18.1751 8.66484V7.66484ZM2.43203 16.4323C2.79393 16.8495 3.4255 16.8943 3.8427 16.5324C4.25989 16.1706 4.30472 15.539 3.94283 15.1218L2.43203 16.4323ZM18.0816 14.7432L13.7183 10.2981L12.291 11.6992L16.6543 16.1442L18.0816 14.7432ZM12.291 10.2981L7.92781 14.7432L9.35509 16.1442L13.7183 11.6992L12.291 10.2981ZM12.0047 10.9986V21H14.0047V10.9986H12.0047ZM22.6421 18.9738C23.9023 18.2739 24.8941 17.1686 25.4646 15.8357L23.626 15.0486C23.2278 15.9788 22.5387 16.7435 21.6711 17.2254L22.6421 18.9738ZM25.4646 15.8357C26.0351 14.503 26.1534 13.016 25.8017 11.6082L23.8613 12.093C24.1074 13.0779 24.0243 14.1182 23.626 15.0486L25.4646 15.8357ZM25.8017 11.6082C25.4499 10.2003 24.6471 8.94826 23.5158 8.05176L22.2736 9.61923C23.0552 10.2386 23.6153 11.1083 23.8613 12.093L25.8017 11.6082ZM23.5158 8.05176C22.3842 7.15498 20.989 6.66581 19.5502 6.66484L19.5489 8.66484C20.5336 8.6655 21.4924 9.00011 22.2736 9.61923L23.5158 8.05176ZM19.5496 6.66484H18.1751V8.66484H19.5496V6.66484ZM19.1444 7.41886C18.7777 5.97385 18.0939 4.63093 17.1431 3.49145L15.6074 4.77281C16.3653 5.68104 16.9122 6.75379 17.2059 7.91082L19.1444 7.41886ZM17.1431 3.49145C16.1922 2.3519 14.9988 1.4453 13.6518 0.84117L12.8334 2.66603C13.9009 3.14482 14.8496 3.86466 15.6074 4.77281L17.1431 3.49145ZM13.6518 0.84117C12.3048 0.237009 10.8399 -0.0485291 9.36766 0.00673221L9.44268 2.00532C10.6067 1.96163 11.7659 2.18729 12.8334 2.66603L13.6518 0.84117ZM9.36766 0.00673221C7.8954 0.0619932 6.45543 0.456557 5.15612 1.15982L6.10813 2.9187C7.13855 2.36098 8.27859 2.04902 9.44268 2.00532L9.36766 0.00673221ZM5.15612 1.15982C3.85689 1.86304 2.73273 2.85624 1.86711 4.06348L3.49247 5.2289C4.18298 4.26588 5.07764 3.47647 6.10813 2.9187L5.15612 1.15982ZM1.86711 4.06348C1.00155 5.27064 0.416723 6.66074 0.15543 8.12905L2.1245 8.47946C2.3338 7.30329 2.80192 6.19199 3.49247 5.2289L1.86711 4.06348ZM0.15543 8.12905C-0.105858 9.59734 -0.0370522 11.1068 0.356838 12.5445L2.28575 12.0159C1.97037 10.8649 1.91519 9.65565 2.1245 8.47946L0.15543 8.12905ZM0.356838 12.5445C0.750739 13.9821 1.45981 15.3115 2.43203 16.4323L3.94283 15.1218C3.16811 14.2287 2.60111 13.1669 2.28575 12.0159L0.356838 12.5445Z" fill="#9E9E9E"/>
</svg>
