<svg
        version="1.1"
        viewBox="0 0 30 30"
        width="60px"
        height="50px"
        xmlns="http://www.w3.org/2000/svg">
        <g xmlns="http://www.w3.org/2000/svg" clip-path="url(#clip0)">
            <path
                d="M17.4069 10.2369L15.0173 7.86247C14.9725 7.8055 14.9243 7.75114 14.8731 7.69967C14.471 7.32862 13.9389 7.12616 13.3888 7.13492C12.8386 7.14368 12.3134 7.36298 11.9236 7.74664C11.5339 8.1303 11.31 8.6484 11.2992 9.19184C11.2883 9.73528 11.4914 10.2617 11.8655 10.6602L11.8573 10.6667C11.4661 11.0605 11.2477 11.5907 11.2493 12.1425C11.251 12.6942 11.4725 13.2232 11.866 13.6148C12.2594 14.0064 12.7932 14.2291 13.3517 14.2348C13.9102 14.2405 14.4485 14.0286 14.85 13.6451L17.4044 11.1372C17.4644 11.0781 17.5119 11.0078 17.5444 10.9305C17.5769 10.8532 17.5936 10.7704 17.5936 10.6867C17.5936 10.603 17.5769 10.5201 17.5444 10.4428C17.5119 10.3655 17.4644 10.2952 17.4044 10.2361"
                fill="#01E0D3" />
            <path
                d="M25.9557 10.744L25.964 10.7367C26.1619 10.5423 26.3191 10.3113 26.4267 10.0569C26.5342 9.80247 26.59 9.52963 26.5908 9.25392C26.5916 8.97822 26.5374 8.70506 26.4313 8.45004C26.3253 8.19502 26.1694 7.96313 25.9726 7.76762C25.7759 7.57211 25.542 7.4168 25.2845 7.31055C25.027 7.20431 24.7508 7.14922 24.4717 7.14843C24.1926 7.14764 23.9161 7.20116 23.6579 7.30593C23.3998 7.4107 23.165 7.56468 22.9671 7.75907L20.4128 10.267C20.2919 10.3865 20.2239 10.5486 20.2239 10.7176C20.2239 10.8865 20.2919 11.0486 20.4128 11.1681L22.8023 13.5425C22.8477 13.5971 22.8955 13.65 22.9465 13.7013C23.1398 13.9104 23.3739 14.0786 23.6347 14.196C23.8955 14.3133 24.1777 14.3773 24.4642 14.3841C24.7507 14.3909 25.0357 14.3403 25.3019 14.2355C25.5681 14.1306 25.8101 13.9736 26.0133 13.7739C26.2165 13.5743 26.3767 13.336 26.4842 13.0736C26.5917 12.8111 26.6444 12.5299 26.639 12.2468C26.6336 11.9638 26.5703 11.6847 26.4529 11.4264C26.3355 11.1681 26.1664 10.936 25.9557 10.744Z"
                fill="#01E0D3" />
            <path
                d="M16.3562 6.23824L18.9106 3.73193C18.5118 3.34565 17.9751 3.13007 17.4166 3.13184C16.8581 3.13361 16.3227 3.35259 15.9265 3.74138C15.5302 4.13018 15.3049 4.6575 15.2992 5.2092C15.2936 5.7609 15.5082 6.2926 15.8964 6.68919L16.3529 7.14341C16.2927 7.08399 16.245 7.01344 16.2124 6.93578C16.1798 6.85812 16.1631 6.77488 16.1631 6.69082C16.1631 6.60676 16.1798 6.52352 16.2124 6.44587C16.245 6.36821 16.2927 6.29766 16.3529 6.23824"
                fill="#99F3ED" />
            <path d="M16.353 7.14203L18.4352 9.2161L16.353 7.14203Z" fill="#01E0D3" />
            <path
                d="M21.9224 3.75053C21.7258 3.55495 21.4922 3.39954 21.2348 3.29316C20.9775 3.18678 20.7014 3.13152 20.4224 3.13054C20.1435 3.12955 19.867 3.18287 19.6089 3.28743C19.3508 3.39199 19.1161 3.54576 18.9181 3.73995L18.9107 3.73181L16.3563 6.23812C16.2961 6.29754 16.2484 6.36809 16.2158 6.44575C16.1832 6.5234 16.1664 6.60664 16.1664 6.6907C16.1664 6.77476 16.1832 6.858 16.2158 6.93566C16.2484 7.01332 16.2961 7.08387 16.3563 7.14329L18.4352 9.21736C18.5562 9.33681 18.7203 9.40391 18.8913 9.40391C19.0624 9.40391 19.2264 9.33681 19.3474 9.21736L21.7534 6.85676C21.8086 6.8128 21.8622 6.76478 21.9141 6.71431C22.1121 6.52021 22.2694 6.28948 22.377 6.03532C22.4847 5.78115 22.5407 5.50851 22.5416 5.23298C22.5426 4.95746 22.4887 4.68444 22.3828 4.42951C22.277 4.17459 22.1214 3.94277 21.9248 3.74728"
                fill="#01E0D3" />
            <path
                d="M10.1573 15.4098H9.28886C9.22131 15.4095 9.15436 15.4223 9.09184 15.4476C9.02933 15.4729 8.97248 15.5102 8.92456 15.5572C8.87664 15.6042 8.83859 15.6602 8.81259 15.7217C8.78659 15.7833 8.77315 15.8494 8.77304 15.9161L8.74915 22.6544C8.74893 22.7137 8.76052 22.7723 8.78327 22.8271C8.80601 22.8819 8.83945 22.9318 8.88169 22.9738C8.92392 23.0158 8.97412 23.0492 9.02942 23.0721C9.08473 23.0949 9.14404 23.1068 9.20399 23.107H10.1302C10.1901 23.1072 10.2495 23.0958 10.305 23.0733C10.3604 23.0509 10.4109 23.0178 10.4534 22.9761C10.496 22.9344 10.5298 22.8848 10.5529 22.8301C10.5761 22.7755 10.5881 22.7169 10.5883 22.6577L10.6122 15.8616C10.6124 15.8024 10.6008 15.7437 10.5781 15.6889C10.5553 15.6341 10.5219 15.5843 10.4797 15.5422C10.4374 15.5002 10.3872 15.4668 10.3319 15.444C10.2766 15.4211 10.2173 15.4092 10.1573 15.409"
                fill="#E1B59B" />
            <path
                d="M0.560373 15.3748H1.18661C1.3259 15.3753 1.46186 15.417 1.57698 15.4945C1.69211 15.5719 1.78114 15.6817 1.83261 15.8095L3.68412 20.4493C3.80277 20.7465 3.99723 20.7465 4.11589 20.4493L5.96163 15.8348C6.01294 15.7059 6.10248 15.5954 6.21849 15.5177C6.33451 15.4399 6.47159 15.3987 6.61175 15.3993H7.25447C7.71755 15.3993 7.94662 15.7468 7.76534 16.1669L4.88138 22.8246C4.8468 22.904 4.78925 22.9716 4.71596 23.0188C4.64266 23.066 4.55688 23.0907 4.46938 23.09H3.31992C3.23342 23.0895 3.14896 23.0641 3.07692 23.0168C3.00489 22.9695 2.94843 22.9024 2.91451 22.8238L0.0404358 16.149C0.00425362 16.0651 -0.0102628 15.9736 -0.00180854 15.8828C0.0066457 15.792 0.0378056 15.7048 0.0888703 15.6288C0.139935 15.5529 0.209304 15.4906 0.290742 15.4477C0.37218 15.4048 0.463134 15.3826 0.555429 15.383"
                fill="#E1B59B" />
            <path
                d="M28.0001 18.538L27.9845 22.8962C27.9844 22.9321 27.9771 22.9676 27.9631 23.0008C27.9491 23.0339 27.9286 23.064 27.9028 23.0893C27.877 23.1147 27.8464 23.1347 27.8128 23.1484C27.7792 23.162 27.7431 23.169 27.7068 23.1689L26.4667 23.164C26.4303 23.1639 26.3943 23.1567 26.3608 23.1429C26.3272 23.129 26.2968 23.1088 26.2712 23.0833C26.2455 23.0578 26.2252 23.0276 26.2114 22.9944C26.1976 22.9612 26.1905 22.9256 26.1906 22.8897V22.2385C25.6139 22.9515 24.6341 23.3349 23.7294 23.3317C22.0715 23.326 20.8232 22.3549 20.8289 20.8644C20.8339 19.3455 22.2701 18.3077 24.0186 18.3142C24.7667 18.3258 25.5065 18.47 26.203 18.7399V18.5315C26.203 17.6361 25.7086 16.7725 24.2946 16.7676C23.6445 16.7676 23.0175 16.9597 22.4234 17.2275C22.358 17.2567 22.2836 17.2596 22.2161 17.2356C22.1486 17.2116 22.0932 17.1626 22.0616 17.0989L21.6768 16.3231C21.6605 16.2905 21.651 16.255 21.6488 16.2186C21.6465 16.1823 21.6517 16.1459 21.6639 16.1116C21.6761 16.0772 21.6951 16.0456 21.7198 16.0186C21.7445 15.9916 21.7745 15.9698 21.8078 15.9544C22.8148 15.5018 23.7582 15.2763 24.6621 15.2796C26.7271 15.2869 28.0042 16.5869 27.9968 18.5356L28.0001 18.538ZM26.203 20.7505V20.0871C26.2038 20.0288 26.1855 19.9718 26.1509 19.9246C26.1163 19.8774 26.0673 19.8425 26.011 19.825C25.4524 19.662 24.8729 19.5798 24.2905 19.5808C23.3709 19.5808 22.6302 20.0814 22.6277 20.8115C22.6252 21.5417 23.2721 22.0048 24.1463 22.0081C25.0354 22.0081 25.9871 21.5677 26.2014 20.7488"
                fill="#E1B59B" />
            <path
                d="M19.3728 11.571H18.4343C18.3752 11.5708 18.3167 11.5821 18.262 11.6042C18.2073 11.6264 18.1576 11.6589 18.1157 11.7001C18.0738 11.7412 18.0404 11.7901 18.0176 11.8439C17.9948 11.8977 17.983 11.9555 17.9828 12.0139L17.9786 13.2047L17.9679 16.2165C17.968 16.2453 17.9592 16.2735 17.9428 16.2973C17.9264 16.3211 17.9031 16.3395 17.876 16.3501C17.8489 16.3606 17.8191 16.3628 17.7907 16.3564C17.7623 16.3501 17.7364 16.3353 17.7166 16.3142C17.4115 15.9724 17.035 15.7 16.6131 15.5158C16.1912 15.3316 15.7339 15.2399 15.2727 15.2471C13.2077 15.2397 11.6941 16.9027 11.6858 19.256C11.6768 21.624 13.1789 23.2967 15.2438 23.304C16.2441 23.304 17.0846 22.9247 17.6952 22.254C17.7154 22.2342 17.741 22.2207 17.7689 22.2152C17.7968 22.2096 17.8257 22.2123 17.852 22.2229C17.8784 22.2335 17.901 22.2515 17.917 22.2747C17.9331 22.2979 17.9419 22.3252 17.9424 22.3533V22.6585C17.9422 22.7211 17.9544 22.783 17.9784 22.8409C18.0025 22.8988 18.0378 22.9514 18.0824 22.9957C18.127 23.0401 18.18 23.0754 18.2384 23.0995C18.2968 23.1236 18.3595 23.1362 18.4228 23.1364H19.2978C19.3611 23.1366 19.4239 23.1245 19.4824 23.1007C19.541 23.077 19.5943 23.0421 19.6392 22.998C19.6841 22.954 19.7198 22.9016 19.7442 22.8439C19.7686 22.7862 19.7813 22.7243 19.7815 22.6618L19.8046 16.2882L19.8153 13.2039L19.8194 12.0139C19.8196 11.9554 19.8082 11.8975 19.7857 11.8435C19.7633 11.7894 19.7302 11.7403 19.6885 11.6988C19.6468 11.6574 19.5972 11.6245 19.5427 11.602C19.4881 11.5795 19.4295 11.5679 19.3704 11.5678L19.3728 11.571ZM15.7448 21.7534C14.433 21.7493 13.5019 20.7033 13.5068 19.2585C13.5118 17.8136 14.4503 16.7896 15.7621 16.7945C17.0591 16.7994 17.9597 17.8299 17.9547 19.2739C17.9498 20.718 17.0409 21.7583 15.7448 21.7534Z"
                fill="#E1B59B" />
        </g>
    </svg>